<?xml version="1.0" encoding="UTF-8" standalone="no"?>
<!-- Created with Inkscape (http://www.inkscape.org/) -->

<svg
   xmlns:dc="http://purl.org/dc/elements/1.1/"
   xmlns:cc="http://creativecommons.org/ns#"
   xmlns:rdf="http://www.w3.org/1999/02/22-rdf-syntax-ns#"
   xmlns:svg="http://www.w3.org/2000/svg"
   xmlns="http://www.w3.org/2000/svg"
   xmlns:xlink="http://www.w3.org/1999/xlink"
   xmlns:sodipodi="http://sodipodi.sourceforge.net/DTD/sodipodi-0.dtd"
   xmlns:inkscape="http://www.inkscape.org/namespaces/inkscape"
   width="100"
   height="100"
   id="svg2"
   version="1.1"
   inkscape:version="0.48.2 r9819"
   sodipodi:docname="paper_blank.svg">
  <defs
     id="defs4">
    <linearGradient
       id="linearGradient5256">
      <stop
         style="stop-color:#3c3030;stop-opacity:1;"
         offset="0"
         id="stop5258" />
      <stop
         style="stop-color:#00ca00;stop-opacity:0;"
         offset="1"
         id="stop5260" />
    </linearGradient>
    <linearGradient
       inkscape:collect="always"
       xlink:href="#linearGradient5256"
       id="linearGradient5266"
       x1="200.42097"
       y1="430.46497"
       x2="143.08716"
       y2="602.15094"
       gradientUnits="userSpaceOnUse"
       spreadMethod="pad" />
    <linearGradient
       inkscape:collect="always"
       xlink:href="#linearGradient5256"
       id="linearGradient2999"
       gradientUnits="userSpaceOnUse"
       spreadMethod="pad"
       x1="178.63525"
       y1="413.32208"
       x2="154.51573"
       y2="603.22235" />
    <linearGradient
       y2="603.22235"
       x2="154.51573"
       y1="413.32208"
       x1="178.63525"
       spreadMethod="pad"
       gradientUnits="userSpaceOnUse"
       id="linearGradient2999-9"
       xlink:href="#linearGradient5256-5"
       inkscape:collect="always" />
    <linearGradient
       spreadMethod="pad"
       gradientUnits="userSpaceOnUse"
       y2="602.15094"
       x2="143.08716"
       y1="430.46497"
       x1="200.42097"
       id="linearGradient5266-2"
       xlink:href="#linearGradient5256-5"
       inkscape:collect="always" />
    <linearGradient
       id="linearGradient5256-5">
      <stop
         id="stop5258-5"
         offset="0"
         style="stop-color:#3c3030;stop-opacity:1;" />
      <stop
         id="stop5260-8"
         offset="1"
         style="stop-color:#00ca00;stop-opacity:0;" />
    </linearGradient>
  </defs>
  <sodipodi:namedview
     id="base"
     pagecolor="#ffffff"
     bordercolor="#666666"
     borderopacity="1.0"
     inkscape:pageopacity="0.0"
     inkscape:pageshadow="2"
     inkscape:zoom="5.6"
     inkscape:cx="54.945061"
     inkscape:cy="31.71699"
     inkscape:document-units="px"
     inkscape:current-layer="layer1"
     showgrid="false"
     showguides="true"
     inkscape:guide-bbox="true"
     inkscape:window-width="1676"
     inkscape:window-height="1042"
     inkscape:window-x="0"
     inkscape:window-y="0"
     inkscape:window-maximized="0"
     inkscape:snap-grids="true">
    <inkscape:grid
       type="xygrid"
       id="grid3074"
       empspacing="5"
       visible="true"
       enabled="true"
       snapvisiblegridlinesonly="true" />
  </sodipodi:namedview>
  <metadata
     id="metadata7">
    <rdf:RDF>
      <cc:Work
         rdf:about="">
        <dc:format>image/svg+xml</dc:format>
        <dc:type
           rdf:resource="http://purl.org/dc/dcmitype/StillImage" />
        <dc:title></dc:title>
      </cc:Work>
    </rdf:RDF>
  </metadata>
  <g
     inkscape:label="Ebene 1"
     inkscape:groupmode="layer"
     id="layer1"
     transform="translate(0,-952.3622)">
    <path
       style="fill:#ffffff;fill-opacity:1;stroke:#000000;stroke-width:4.22770023;stroke-miterlimit:0;stroke-opacity:1;stroke-dasharray:none"
       d="m 16.681262,964.47685 c 22.212491,0 44.424984,0 66.637477,0 4.174708,-0.0437 4.825619,2.97841 4.492179,5.14223 0,22.51687 0,45.03372 0,67.55052 0.0647,2.814 -4.418652,3.2529 -7.628766,3.028 -21.166964,0 -42.333929,0 -63.50089,0 -4.17471,0.044 -4.825616,-2.9783 -4.49218,-5.1422 0,-22.5169 0,-45.0337 0,-67.55057 -0.05831,-1.62762 2.076698,-3.06714 4.49218,-3.02798 z"
       id="rect4227"
       inkscape:connector-curvature="0" />
    <g
       id="layer1-7"
       inkscape:label="Ebene 1"
       transform="matrix(0.72222228,0,0,0.72222228,13.888886,278.43388)">
      <path
         d="m -59.9456,957.36218 19.8912,0 c 1.415137,0 2.5544,1.13927 2.5544,2.5544 l 0,84.89122 c 0,1.4151 -1.139263,2.5544 -2.5544,2.5544 l -19.8912,0 c -1.415137,0 -2.5544,-1.1393 -2.5544,-2.5544 l 0,-84.89122 c 0,-1.41513 1.139263,-2.5544 2.5544,-2.5544 z M -5,992.41658 l 0,19.89122 c 0,1.4151 -1.1392626,2.5544 -2.5544004,2.5544 l -84.8911996,0 c -1.415137,0 -2.5544,-1.1393 -2.5544,-2.5544 l 0,-19.89122 c 0,-1.41513 1.139263,-2.5544 2.5544,-2.5544 l 84.8911996,0 c 1.4151378,0 2.5544004,1.13927 2.5544004,2.5544 z"
         style="fill:#000000;fill-opacity:1;stroke:none"
         transform="scale(-1,1)"
         id="rect4002"
         inkscape:connector-curvature="0" />
    </g>
  </g>
</svg>
