<?xml version="1.0" encoding="UTF-8" standalone="no"?>
<!-- Created with Inkscape (http://www.inkscape.org/) -->

<svg
   xmlns:dc="http://purl.org/dc/elements/1.1/"
   xmlns:cc="http://creativecommons.org/ns#"
   xmlns:rdf="http://www.w3.org/1999/02/22-rdf-syntax-ns#"
   xmlns:svg="http://www.w3.org/2000/svg"
   xmlns="http://www.w3.org/2000/svg"
   xmlns:xlink="http://www.w3.org/1999/xlink"
   xmlns:sodipodi="http://sodipodi.sourceforge.net/DTD/sodipodi-0.dtd"
   xmlns:inkscape="http://www.inkscape.org/namespaces/inkscape"
   width="100"
   height="100"
   id="svg2"
   version="1.1"
   inkscape:version="0.48.2 r9819"
   sodipodi:docname="paper_arrow_right.svg">
  <defs
     id="defs4">
    <linearGradient
       id="linearGradient5256">
      <stop
         style="stop-color:#3c3030;stop-opacity:1;"
         offset="0"
         id="stop5258" />
      <stop
         style="stop-color:#00ca00;stop-opacity:0;"
         offset="1"
         id="stop5260" />
    </linearGradient>
    <linearGradient
       inkscape:collect="always"
       xlink:href="#linearGradient5256"
       id="linearGradient5266"
       x1="200.42097"
       y1="430.46497"
       x2="143.08716"
       y2="602.15094"
       gradientUnits="userSpaceOnUse"
       spreadMethod="pad" />
    <linearGradient
       inkscape:collect="always"
       xlink:href="#linearGradient5256"
       id="linearGradient2999"
       gradientUnits="userSpaceOnUse"
       spreadMethod="pad"
       x1="178.63525"
       y1="413.32208"
       x2="154.51573"
       y2="603.22235" />
  </defs>
  <sodipodi:namedview
     id="base"
     pagecolor="#ffffff"
     bordercolor="#666666"
     borderopacity="1.0"
     inkscape:pageopacity="0.0"
     inkscape:pageshadow="2"
     inkscape:zoom="0.63727999"
     inkscape:cx="481.29899"
     inkscape:cy="-227.06812"
     inkscape:document-units="px"
     inkscape:current-layer="layer1"
     showgrid="false"
     showguides="true"
     inkscape:guide-bbox="true"
     inkscape:window-width="1676"
     inkscape:window-height="1042"
     inkscape:window-x="0"
     inkscape:window-y="0"
     inkscape:window-maximized="0"
     inkscape:snap-grids="true">
    <inkscape:grid
       type="xygrid"
       id="grid3074"
       empspacing="5"
       visible="true"
       enabled="true"
       snapvisiblegridlinesonly="true" />
  </sodipodi:namedview>
  <metadata
     id="metadata7">
    <rdf:RDF>
      <cc:Work
         rdf:about="">
        <dc:format>image/svg+xml</dc:format>
        <dc:type
           rdf:resource="http://purl.org/dc/dcmitype/StillImage" />
        <dc:title></dc:title>
      </cc:Work>
    </rdf:RDF>
  </metadata>
  <g
     inkscape:label="Ebene 1"
     inkscape:groupmode="layer"
     id="layer1"
     transform="translate(0,-952.3622)">
    <g
       id="g4237">
      <path
         inkscape:connector-curvature="0"
         id="rect4227"
         d="m 27.312087,964.11542 c 15.125275,0 30.250551,0 45.375826,0 2.842708,-0.0441 3.285933,3.00881 3.058885,5.1947 0,22.74667 0,45.49338 0,68.23998 0.04406,2.8427 -3.008817,3.286 -5.194698,3.0589 -14.413338,0 -28.826676,0 -43.240013,0 -2.842708,0.044 -3.285933,-3.0088 -3.058885,-5.1947 0,-22.7467 0,-45.49333 0,-68.24 -0.03971,-1.64423 1.414098,-3.09845 3.058885,-3.05888 z"
         style="fill:#ffffff;fill-opacity:1;stroke:#000000;stroke-width:3.50640488;stroke-miterlimit:0;stroke-opacity:1;stroke-dasharray:none" />
      <path
         inkscape:connector-curvature="0"
         id="rect4229"
         d="m 64.568298,965.04077 c 3.239135,0 6.478271,0 9.717406,0 0,3.51191 0,7.02381 0,10.53572 -3.239135,0 -6.478271,0 -9.717406,0 0,-3.51191 0,-7.02381 0,-10.53572 z"
         style="fill:#000000;fill-opacity:1;stroke:none" />
    </g>
    <g
       id="g4326"
       transform="matrix(0,1,-1,0,1048.1583,956.16188)">
      <path
         sodipodi:nodetypes="sssssssss"
         inkscape:connector-curvature="0"
         id="rect4293"
         d="m 47.446428,33.392857 4.928571,0 c 1.483929,0 2.573645,1.198357 2.678572,2.678571 l 2,28.214285 c 0.526501,7.427419 -1.194643,0 -2.678572,0 l -8.928571,0 c -1.483929,0 -3.224685,7.704104 -2.678571,0 l 2,-28.214285 c 0.104927,-1.480214 1.194642,-2.678571 2.678571,-2.678571 z"
         style="fill:#000000;fill-opacity:1;stroke:none"
         transform="translate(0,952.3622)" />
      <path
         sodipodi:nodetypes="sscsssscs"
         inkscape:connector-curvature="0"
         id="rect4295"
         d="M 42.857142,56.767856 56.875,56.857142 c 1.483898,0.0095 10.214,-3.983927 10.214,-4.017856 0,0 1.25,0.08914 0,2.142714 C 66.317436,56.249569 54.655444,81.338341 51.964286,82.928571 50,84.089285 49.999999,84.08929 48.214285,83.017861 45.227527,81.225806 33.709174,56.09877 32.732,54.982 c -1.875,-2.142858 0,-2.142714 0,-2.142714 0,0 8.641243,3.919118 10.125142,3.92857 z"
         style="fill:#000004;fill-opacity:1;stroke:none"
         transform="translate(0,952.3622)" />
    </g>
  </g>
</svg>
