<?xml version="1.0" encoding="UTF-8" standalone="no"?>
<!-- Created with Inkscape (http://www.inkscape.org/) -->

<svg
   xmlns:dc="http://purl.org/dc/elements/1.1/"
   xmlns:cc="http://creativecommons.org/ns#"
   xmlns:rdf="http://www.w3.org/1999/02/22-rdf-syntax-ns#"
   xmlns:svg="http://www.w3.org/2000/svg"
   xmlns="http://www.w3.org/2000/svg"
   xmlns:xlink="http://www.w3.org/1999/xlink"
   xmlns:sodipodi="http://sodipodi.sourceforge.net/DTD/sodipodi-0.dtd"
   xmlns:inkscape="http://www.inkscape.org/namespaces/inkscape"
   width="100"
   height="100"
   id="svg2"
   version="1.1"
   inkscape:version="0.48.2 r9819"
   sodipodi:docname="delete.svg">
  <defs
     id="defs4">
    <linearGradient
       id="linearGradient5256">
      <stop
         style="stop-color:#3c3030;stop-opacity:1;"
         offset="0"
         id="stop5258" />
      <stop
         style="stop-color:#00ca00;stop-opacity:0;"
         offset="1"
         id="stop5260" />
    </linearGradient>
    <linearGradient
       inkscape:collect="always"
       xlink:href="#linearGradient5256"
       id="linearGradient5266"
       x1="200.42097"
       y1="430.46497"
       x2="143.08716"
       y2="602.15094"
       gradientUnits="userSpaceOnUse"
       spreadMethod="pad" />
    <linearGradient
       inkscape:collect="always"
       xlink:href="#linearGradient5256"
       id="linearGradient2999"
       gradientUnits="userSpaceOnUse"
       spreadMethod="pad"
       x1="178.63525"
       y1="413.32208"
       x2="154.51573"
       y2="603.22235" />
  </defs>
  <sodipodi:namedview
     id="base"
     pagecolor="#ffffff"
     bordercolor="#666666"
     borderopacity="1.0"
     inkscape:pageopacity="0.0"
     inkscape:pageshadow="2"
     inkscape:zoom="5.6"
     inkscape:cx="54.945061"
     inkscape:cy="31.71699"
     inkscape:document-units="px"
     inkscape:current-layer="layer1"
     showgrid="false"
     showguides="true"
     inkscape:guide-bbox="true"
     inkscape:window-width="1676"
     inkscape:window-height="1042"
     inkscape:window-x="0"
     inkscape:window-y="0"
     inkscape:window-maximized="0"
     inkscape:snap-grids="true">
    <inkscape:grid
       type="xygrid"
       id="grid3074"
       empspacing="5"
       visible="true"
       enabled="true"
       snapvisiblegridlinesonly="true" />
  </sodipodi:namedview>
  <metadata
     id="metadata7">
    <rdf:RDF>
      <cc:Work
         rdf:about="">
        <dc:format>image/svg+xml</dc:format>
        <dc:type
           rdf:resource="http://purl.org/dc/dcmitype/StillImage" />
        <dc:title></dc:title>
      </cc:Work>
    </rdf:RDF>
  </metadata>
  <g
     inkscape:label="Ebene 1"
     inkscape:groupmode="layer"
     id="layer1"
     transform="translate(0,-952.3622)">
    <g
       id="g4202"
       transform="matrix(0.89225802,0.45152588,-0.45152588,0.89225802,457.53771,85.314754)">
      <g
         id="g4198">
        <path
           style="fill:#000000;fill-opacity:1;stroke:none"
           d="m -59.9456,957.36218 19.8912,0 c 1.415137,0 2.5544,1.13927 2.5544,2.5544 l 0,64.41392 c 0,1.5687 -5.629185,12.5703 -9.375645,18.7835 -0.936338,1.5528 -2.726461,2.291 -3.126906,2.291 -0.403722,-0.01 -2.312589,-0.836 -3.181091,-2.3403 -3.507284,-6.0748 -9.012321,-16.3989 -9.316358,-18.7342 l 0,-64.41392 c 0,-1.41513 1.139263,-2.5544 2.5544,-2.5544 z"
           id="rect4002"
           inkscape:connector-curvature="0"
           sodipodi:nodetypes="ssssscscss"
           transform="scale(-1,1)" />
        <path
           style="fill:#ffffff;fill-opacity:1;stroke:none"
           d="m 44,7.8125 c -1.633844,-1.271e-4 -2.96875,1.33491 -2.96875,2.96875 l 0,58.25 c 0,1.6338 0.927396,2.965813 1.9375,4.25 L 47.812,79.438 c 0,0.0177 3.588,-6.563 3.588,-6.563 -1.199557,-0.0486 -1.187149,-2.7871 -1.1875,-3.3435 l -0.03125,-58.75 C 50.180219,9.14766 48.84634,7.8128771 47.2125,7.81275 z m 7.4,65.06275 c 0,0 0.35,6.58045 0.35,6.56275 l 5.28125,-6.15675 c 1.060277,-1.243078 1.9375,-2.6162 1.9375,-4.25 l 0,-58.25 c 0,-1.63384 -1.303664,-2.9696705 -2.9375,-2.96875 L 55.5875,7.81275 C 53.95366,7.8136705 52.651031,9.14766 52.65,10.7815 l -0.0625,58.75 c -3.51e-4,0.5564 0.01206,3.29515 -1.1875,3.34375 z"
           transform="translate(0,952.3622)"
           id="path4190"
           inkscape:connector-curvature="0"
           sodipodi:nodetypes="ssscccccsscccssssccc" />
      </g>
      <path
         sodipodi:nodetypes="ccccc"
         inkscape:connector-curvature="0"
         id="path4194"
         d="m 47.812,1031.8002 2.716174,-6.5843 1.6184,0.01 -0.396574,6.5743 z"
         style="fill:#ffffff;fill-opacity:1;stroke:none" />
    </g>
  </g>
</svg>
